<svg id="Layer_1" data-name="Layer 1" xmlns="http://www.w3.org/2000/svg" viewBox="0 0 1487.09 434.82"><defs><style>.cls-1{fill:#01417c;}.cls-2,.cls-5{fill:#df193a;}.cls-3{fill:#fff;}.cls-4{fill:none;stroke:#df193a;stroke-miterlimit:10;stroke-width:6px;}.cls-5{fill-rule:evenodd;}</style></defs><g id="SvgjsG8203"><path class="cls-1" d="M288.87,319a4.11,4.11,0,0,1-2.75-.69c-26.17-20.65-55.09-45.44-63.35-73-3.44-11.71,3.44-23.41,15.15-26.85s23.41,3.44,26.85,15.14c4.82,15.84,36.49,41.32,48.2,50.27,2.06,1.37,2.06,4.13.69,6.19s-4.13,2.07-6.2.69c-22.72-17.9-46.13-38.56-50.95-55.08A13.48,13.48,0,0,0,240,226.72,13.18,13.18,0,0,0,231,243.24c6.89,24.79,34.43,48.2,59.91,68.17,2.06,1.37,2.06,4.13.68,6.19C291.62,318.29,290.25,319,288.87,319Z" transform="translate(-30.97 -18.09)"/><path class="cls-1" d="M177.33,296.26a4.65,4.65,0,0,1-4.13-2.75,4.52,4.52,0,0,1,3.44-5.51c4.82-1.38,20-8.26,13.08-33.05-4.13-14.46-2.75-30.3,4.82-43.38s19.28-22.72,33.74-26.85c29.61-8.26,60.59,8.26,69.54,37.18,2.07,2.07,17.21,14.46,27.54,22.72,2.07,1.38,2.07,4.13.69,6.2s-4.13,2.06-6.2.69c-28.23-22.73-28.91-24.1-29.6-25.48a.68.68,0,0,0-.69-.69C282,200.56,255.13,186.1,230.35,193a47.63,47.63,0,0,0-33,59.21c7.57,26.17-5.51,39.94-18.59,44.07Z" transform="translate(-30.97 -18.09)"/><path class="cls-1" d="M191.79,313.47a4.64,4.64,0,0,1-4.13-2.75,4.69,4.69,0,0,1,2.75-5.51c17.9-5.51,24.79-15.15,15.84-55.08-4.82-22,6.88-42.69,26.85-48.2,20.65-6.19,42.69,6.2,48.88,26.85,1.38,4.14,6.89,12.4,39.25,37.87,2.07,1.38,2.07,4.13.69,6.2s-4.13,2.07-6.2.69c-35.8-28.23-40.62-36.49-42-42.69-4.82-16.52-21.34-25.47-37.87-20.66C220,215,211.07,230.85,215.2,248.06c9,41.32,3.44,57.84-22,65.41Z" transform="translate(-30.97 -18.09)"/><path class="cls-1" d="M301.26,304.52a3.6,3.6,0,0,1-2.75-1.37c-1.38-1.38-4.82-4.14-8.95-7.58-15.84-11.7-42-31.67-48.89-55.77a4.36,4.36,0,0,1,8.27-2.75c6.19,21.34,31,39.93,45.44,50.95a87.59,87.59,0,0,1,10.33,8.26c1.37,1.38,1.37,4.82,0,6.2A6.33,6.33,0,0,1,301.26,304.52Z" transform="translate(-30.97 -18.09)"/><path class="cls-1" d="M235.16,339.64h0c-2.75,0-4.81-2.07-4.13-4.82,0-4.82,2.76-30.3,17.22-30.3,11,0,17.21,9,22,15.15,1.38,1.38,2.07,2.75,3.44,4.13s1.38,4.82,0,6.2-4.82,1.38-6.19,0a30.34,30.34,0,0,1-4.14-4.82c-3.44-4.82-8.26-11-14.45-11-4.82,0-8.27,13.08-9,22A5.4,5.4,0,0,1,235.16,339.64Z" transform="translate(-30.97 -18.09)"/><path class="cls-1" d="M209,330.69a4.66,4.66,0,0,1-4.13-2.76,4.36,4.36,0,0,1,2.75-5.51c11-3.44,18.59-26.85,14.46-38.55a4.36,4.36,0,0,1,8.27-2.76c4.81,14.46-3.45,44.07-20,48.89C209.69,330.69,209.69,330.69,209,330.69Z" transform="translate(-30.97 -18.09)"/><path class="cls-1" d="M173.89,243.24a4,4,0,0,1-4.14-4.13,74.05,74.05,0,0,1,74.37-74.36c40.62,0,55.08,23.41,65.41,40.63,4.82,8.26,9,15.14,14.45,16.52a4.35,4.35,0,1,1-2.75,8.26c-8.26-2.75-13.77-11-19.28-20.65-10.33-15.84-22.72-36.5-57.83-36.5a65.38,65.38,0,0,0-65.41,65.41A4.71,4.71,0,0,1,173.89,243.24Z" transform="translate(-30.97 -18.09)"/><path class="cls-1" d="M178.71,274.23a4.29,4.29,0,0,1-4.14-2.76c-.68-1.37-4.82-9.64-4.82-15.14a4,4,0,0,1,4.14-4.14,4.45,4.45,0,0,1,4.13,4.14c0,2.06,2.06,8.26,4.13,11,1.38,2.07,0,4.82-2.07,6.2A2.41,2.41,0,0,1,178.71,274.23Z" transform="translate(-30.97 -18.09)"/><path class="cls-1" d="M305.39,182A3.79,3.79,0,0,1,302,179.9c-4.13-6.89-28.23-24.1-62-24.1-35.11,0-53.7,17.9-57.14,24.1-2.07,2.07-4.82,2.75-6.89,1.38s-2.75-3.45-1.38-5.51c4.82-7.58,25.48-28.23,64.73-28.23,36.49,0,63.34,18.59,69.54,28.23,1.37,2.06.69,4.13-1.38,5.51A2.53,2.53,0,0,1,305.39,182Z" transform="translate(-30.97 -18.09)"/><path class="cls-1" d="M287.49,146.85h-1.37a33,33,0,0,1-4.82-2.07c-8.95-3.44-17.91-6.88-41.32-6.88-20.65,0-25.47,2.75-32.36,5.51-2.06,1.37-3.44,2.75-5.5,3.44s-4.82,0-5.51-2.07,0-4.81,2.06-5.5a40.35,40.35,0,0,1,4.82-2.76c7.58-4.13,13.08-6.88,36.49-6.88,25.48,0,35.12,3.44,44.76,6.88,1.38.69,3.44,1.38,4.82,2.07a4.69,4.69,0,0,1,2.75,5.51C291.62,146.16,289.56,146.85,287.49,146.85Z" transform="translate(-30.97 -18.09)"/><path class="cls-1" d="M322.61,208.13a4.64,4.64,0,0,1-4.13-2.75c-2.07-6.2-8.27-16.53-8.27-16.53a4.49,4.49,0,1,1,7.58-4.82c0,.69,6.88,11,8.95,18.59a4.68,4.68,0,0,1-2.76,5.51Z" transform="translate(-30.97 -18.09)"/></g><path class="cls-2" d="M521.87,187.6H541L568,231.87h.18V187.6h14v63.71H563.9L536.09,206h-.18v45.35h-14Z" transform="translate(-30.97 -18.09)"/><path class="cls-2" d="M616.19,187.6h11.6l27.72,63.71H639.67l-5.49-13.5H609.44l-5.31,13.5H588.65Zm5.39,18.53-7.73,19.8h15.57Z" transform="translate(-30.97 -18.09)"/><path class="cls-2" d="M666,200H647.78V187.6h50.39V200H680v51.29H666Z" transform="translate(-30.97 -18.09)"/><path class="cls-2" d="M705.11,187.6h14v63.71h-14Z" transform="translate(-30.97 -18.09)"/><path class="cls-2" d="M762.88,186c19.89,0,34.38,13.05,34.38,33.47s-14.49,33.48-34.38,33.48-34.38-13.05-34.38-33.48S743,186,762.88,186Zm0,54c12,0,19.8-8.64,19.8-20.52s-7.83-20.51-19.8-20.51-19.8,8.63-19.8,20.51S750.91,240,762.88,240Z" transform="translate(-30.97 -18.09)"/><path class="cls-2" d="M806.8,187.6h19.08L853,231.87h.18V187.6h14v63.71H848.83L821,206h-.18v45.35h-14Z" transform="translate(-30.97 -18.09)"/><path class="cls-2" d="M901.12,187.6h11.61l27.72,63.71H924.61l-5.49-13.5H894.37l-5.31,13.5H873.58Zm5.4,18.53-7.74,19.8h15.57Z" transform="translate(-30.97 -18.09)"/><path class="cls-2" d="M947.38,187.6h14v50.75h26v13h-40Z" transform="translate(-30.97 -18.09)"/><path class="cls-2" d="M1063.48,204.15c-2.79-3.32-6.84-5.21-12.06-5.21-10.62,0-18.45,8.63-18.45,20.51S1040.8,240,1051,240a15.24,15.24,0,0,0,13.14-6.84l11.7,8.73c-5.31,7.56-14.31,11.07-23,11.07-19.89,0-34.38-13.05-34.38-33.48S1032.88,186,1052.77,186c7.11,0,16.11,2.43,21.51,9.36Z" transform="translate(-30.97 -18.09)"/><path class="cls-2" d="M1099.12,224.13l-23.94-36.53h17.46l13.5,23.85,14.31-23.85h16.65l-23.94,36.53v27.18h-14Z" transform="translate(-30.97 -18.09)"/><path class="cls-2" d="M1141.78,187.6h23.76c11.16,0,23.31,2.34,23.31,16.19,0,7.11-4.41,12-11,14V218c8.37,1.08,14,7.29,14,15.57,0,13.32-12.6,17.73-23.94,17.73h-26.1Zm14,25.46H1166c4.32,0,8.82-1.8,8.82-6.93,0-5.3-5-6.66-9.45-6.66h-9.54Zm0,26.37h12.6c4.41,0,9.36-1.89,9.36-7.47,0-6-6.75-7-11.34-7h-10.62Z" transform="translate(-30.97 -18.09)"/><path class="cls-2" d="M1200.64,187.6h43.29v13h-29.25v11.88h27.63v13h-27.63v13h30.87v13h-44.91Z" transform="translate(-30.97 -18.09)"/><path class="cls-2" d="M1256.8,187.6h24.66c13,0,24,4.5,24,19.35,0,8.9-4.77,15.83-13.77,17.45l16.2,26.91h-16.83l-13.32-25.47h-6.93v25.47h-14Zm14,26.36h8.28c5.13,0,11.79-.17,11.79-7.1,0-6.4-5.76-7.39-10.89-7.39h-9.18Z" transform="translate(-30.97 -18.09)"/><path class="cls-1" d="M553.37,311.17c-2.25-2.88-6.75-4.23-10.17-4.23-4,0-9.45,1.8-9.45,6.57,0,11.61,29.34,4.13,29.34,26.45,0,14.22-11.43,21-24.57,21-8.19,0-15.39-2.43-21.42-8l10-11a15.61,15.61,0,0,0,12.24,6c4.59,0,9.72-2.16,9.72-6.66,0-11.69-29.88-5.4-29.88-26.63,0-13.59,11.79-20.7,24.3-20.7,7.2,0,14.13,1.89,19.53,6.66Z" transform="translate(-30.97 -18.09)"/><path class="cls-1" d="M574.07,295.6h43.28v13H588.11v11.88h27.63v12.95H588.11v13H619v13h-44.9Z" transform="translate(-30.97 -18.09)"/><path class="cls-1" d="M671.89,312.16c-2.79-3.33-6.84-5.22-12.06-5.22-10.62,0-18.44,8.64-18.44,20.52s7.82,20.51,18,20.51a15.24,15.24,0,0,0,13.14-6.84l11.7,8.73c-5.31,7.56-14.31,11.07-23,11.07-19.89,0-34.37-13.05-34.37-33.47S641.29,294,661.18,294c7.11,0,16.11,2.43,21.51,9.36Z" transform="translate(-30.97 -18.09)"/><path class="cls-1" d="M745.6,334.74c0,15-9.18,26.19-26.82,26.19s-26.9-11.16-26.9-26.19V295.6h14v38.61c0,7.82,5.39,13.76,12.86,13.76s12.78-5.94,12.78-13.76V295.6h14Z" transform="translate(-30.97 -18.09)"/><path class="cls-1" d="M758.56,295.6h24.66c13,0,24,4.5,24,19.35,0,8.91-4.77,15.84-13.77,17.45l16.2,26.91H792.85l-13.32-25.47H772.6v25.47h-14Zm14,26.36h8.28c5.13,0,11.79-.17,11.79-7.1,0-6.4-5.76-7.38-10.89-7.38H772.6Z" transform="translate(-30.97 -18.09)"/><path class="cls-1" d="M816.71,295.6h14v63.71h-14Z" transform="translate(-30.97 -18.09)"/><path class="cls-1" d="M855.85,308H837.67V295.6h50.4V308H869.89v51.29h-14Z" transform="translate(-30.97 -18.09)"/><path class="cls-1" d="M910.84,332.13,886.9,295.6h17.46l13.5,23.85,14.31-23.85h16.65l-23.94,36.53v27.18h-14Z" transform="translate(-30.97 -18.09)"/><path class="cls-1" d="M1011.64,311.17c-2.25-2.88-6.75-4.23-10.17-4.23-4,0-9.45,1.8-9.45,6.57,0,11.61,29.34,4.13,29.34,26.45,0,14.22-11.43,21-24.57,21-8.19,0-15.39-2.43-21.42-8l10-11a15.61,15.61,0,0,0,12.24,6c4.59,0,9.72-2.16,9.72-6.66,0-11.69-29.88-5.4-29.88-26.63,0-13.59,11.79-20.7,24.3-20.7,7.2,0,14.13,1.89,19.53,6.66Z" transform="translate(-30.97 -18.09)"/><path class="cls-1" d="M1044.13,308H1026V295.6h50.4V308h-18.18v51.29h-14Z" transform="translate(-30.97 -18.09)"/><path class="cls-1" d="M1096.15,295.6h11.61l27.72,63.71h-15.84l-5.49-13.5H1089.4l-5.31,13.5h-15.48Zm5.4,18.53-7.74,19.8h15.57Z" transform="translate(-30.97 -18.09)"/><path class="cls-1" d="M1141.87,295.6H1161L1188,339.87h.18V295.6h14v63.71H1183.9L1156.09,314h-.18v45.35h-14Z" transform="translate(-30.97 -18.09)"/><path class="cls-1" d="M1215.22,295.6h21.06c20.52,0,37.71,8.73,37.71,32,0,20.61-16.83,31.68-35.82,31.68h-23Zm14,50.75h7.29c13,0,22.86-5,22.86-19.43,0-12.51-10-18.36-21.87-18.36h-8.28Z" transform="translate(-30.97 -18.09)"/><path class="cls-1" d="M1304.5,295.6h11.61l27.72,63.71H1328l-5.49-13.5h-24.75l-5.31,13.5H1277Zm5.4,18.53-7.74,19.8h15.57Z" transform="translate(-30.97 -18.09)"/><path class="cls-1" d="M1350.22,295.6h24.66c13,0,24,4.5,24,19.35,0,8.91-4.78,15.84-13.77,17.45l16.19,26.91h-16.82l-13.32-25.47h-6.93v25.47h-14Zm14,26.36h8.28c5.13,0,11.79-.17,11.79-7.1,0-6.4-5.76-7.38-10.89-7.38h-9.18Z" transform="translate(-30.97 -18.09)"/><path class="cls-1" d="M1408.54,295.6h21.06c20.51,0,37.7,8.73,37.7,32,0,20.61-16.83,31.68-35.81,31.68h-23Zm14,50.75h7.29c13.05,0,22.85-5,22.85-19.43,0-12.51-10-18.36-21.86-18.36h-8.28Z" transform="translate(-30.97 -18.09)"/><path class="cls-1" d="M1508.34,311.17c-2.25-2.88-6.75-4.23-10.17-4.23-4,0-9.44,1.8-9.44,6.57,0,11.61,29.33,4.13,29.33,26.45,0,14.22-11.43,21-24.56,21-8.19,0-15.39-2.43-21.42-8l10-11a15.59,15.59,0,0,0,12.24,6c4.59,0,9.71-2.16,9.71-6.66,0-11.69-29.87-5.4-29.87-26.63,0-13.59,11.79-20.7,24.3-20.7,7.19,0,14.12,1.89,19.52,6.66Z" transform="translate(-30.97 -18.09)"/><path class="cls-1" d="M513.28,90.8l.35-.49h31.55l2.11,4.27-.35.48H536.13a37.46,37.46,0,0,1,.66,7.38c0,7.74-3.87,12.17-9.58,15.12,3.69,4.35,9.8,8.57,17.14,12.57l-3,5.62h-.53c-7.6-5.84-13.8-11.73-18-17.8-2.15-3.12-3.25-5.75-3.25-7.33a3.63,3.63,0,0,1,.79-2.33c.66-.93,2-1.45,4.17-1.45a54.92,54.92,0,0,1,5.59.26,14,14,0,0,0,1.49-6.68,26.21,26.21,0,0,0-.48-5.36H515.39Z" transform="translate(-30.97 -18.09)"/><path class="cls-1" d="M543.07,90.8l.35-.49h19.25l2.11,4.27-.35.48h-7.95l.17,40.25-.44.49-4.92-1.32.13-39.42h-6.24Z" transform="translate(-30.97 -18.09)"/><path class="cls-1" d="M560.56,90.8l.36-.49h40.6l2.11,4.27-.35.48h-7.52v12.66c0,12-6.1,13.88-13.09,15.29-7.17,1.45-10,4-10,7.78,0,4.79,4,7.86,9,7.86,4.79,0,9.58-2.81,14.46-7.78l3.42,4.36v.3c-5,5.54-10.19,7.74-15.38,7.74a16.09,16.09,0,0,1-11.51-4.57c-3.17-3.08-5.14-6.46-5.14-10.37,0-4.31,2.55-7.65,8.87-9.5l0-.17c-4-1.76-7-5.06-7-12.66,0-3.56,0-7.38.13-10.94h-6.77ZM574.63,97l-.14.09c0,3.12,0,7.12,0,10.24,0,7.25,3,10.37,7,10.37a9.34,9.34,0,0,0,6.86-2.82Zm2.15-1.89-.09.09,13.23,17.49.13-.13a10.53,10.53,0,0,0,.7-4.49v-13Z" transform="translate(-30.97 -18.09)"/><path class="cls-1" d="M571.59,155.18l10.59-9.41a3.24,3.24,0,0,1,2.07-1,6.27,6.27,0,0,1,3.34,1.71c4.26,3.43,9,7.38,14.06,11.64l-1.49,2h-.22c-5-4.05-9.14-7.34-11.38-9.06a3.93,3.93,0,0,0-2.07-1,2.24,2.24,0,0,0-1.58.79l-9.1,8.13h-.17Z" transform="translate(-30.97 -18.09)"/><path class="cls-1" d="M599.41,90.8l.35-.49h8C607.06,80.16,603,75.15,597,75.15c-4.18,0-6.46,2.86-6.46,6a12.22,12.22,0,0,0,2.94,7.38l-.39.48-4.66-2.15c-2-2.42-3.34-5-3.34-7.78,0-4.61,3.29-8.35,9.45-8.35,8.43,0,16.61,8.09,18.1,19.6H619l2.11,4.27-.35.48h-8l.18,40.25-.44.49-4.92-1.32.13-39.42h-6.24Z" transform="translate(-30.97 -18.09)"/><path class="cls-1" d="M616.9,90.8l.35-.49h42.37l2.11,4.27-.36.48h-8l.22,40.25-.44.49-5-1.32.18-12.66a14.4,14.4,0,0,1-9.14,2.77c-8.61,0-14.41-7.34-17.31-16.08l.43-.75c6-2,10.42-3.43,10.42-7.16a8.47,8.47,0,0,0-2.55-5.54H619Zm17.71,4.26c2.11,3.25,3,6,3,8.09,0,4.21-2.37,6.24-8.21,8.39-.84.31-1.19.66-1.19,1.19,0,1.31,2.72,6.76,9.27,6.76a13.85,13.85,0,0,0,7.87-2.37c2-1.36,3-3.43,3-6.46V95.06Z" transform="translate(-30.97 -18.09)"/><path class="cls-1" d="M675.74,90.8l.36-.49h46.62l2.11,4.27-.35.48h-8l.22,40.25-.44.49-5-1.32.18-17a24.87,24.87,0,0,1-5.76.66,29.29,29.29,0,0,1-12.57-3.25,15.14,15.14,0,0,1-4.83,5.49c4.13,4.57,9.66,8.22,15.68,11.52l-3,5.71h-.4c-7.82-6.24-13.67-12.17-16.92-17.58-1.76-3-2.9-5.49-2.9-7.21a3.91,3.91,0,0,1,3.91-3.69,28.17,28.17,0,0,1,4,.44,22.85,22.85,0,0,0,.79-6.46,49.22,49.22,0,0,0-.66-8h-11Zm17.89,4.26a56.1,56.1,0,0,1,1,10.41,26.29,26.29,0,0,1-.53,5.63,23.8,23.8,0,0,0,8.13,1.41,44.66,44.66,0,0,0,9.28-1.1V95.06Z" transform="translate(-30.97 -18.09)"/><path class="cls-1" d="M720.61,90.8l.35-.49h19.25l2.11,4.27-.35.48h-8l.17,40.25-.44.49-4.92-1.32L729,95.06h-6.24Z" transform="translate(-30.97 -18.09)"/><path class="cls-1" d="M738.1,90.8l.35-.49h38.37l2.11,4.27-.35.48h-8.44v10.81l-.44.53c-2.46-.09-6.55-.09-9.54-.09-9.23,0-11.55,2.15-11.55,5.1,0,1.71,1.23,2.63,3.47,2.63,3.51,0,7.38-2.24,11.55-2.24,2.82,0,5.06,1.63,7,4.26a11.38,11.38,0,0,1,2.54,7c0,4.79-4.87,8.53-12.74,10.42,1.93,3.47,7,5.45,14.2,6.37l-2.11,5.8h-.31c-6.07-.48-10.68-2.72-14.72-11.87a16.14,16.14,0,0,1-3,.27c-2.59,0-4.18-.48-5.8-2.42a7,7,0,0,1-1.63-4.22c0-1.36,1.1-2.9,3.47-2.9a9.74,9.74,0,0,1,7.78,3.83c5.8-1.19,10.59-5.23,10.59-9,0-1.14-1-2.28-3.21-2.28-3.51,0-7.82,2.32-11,2.32-2.68,0-5.71-1.27-8.3-4.74-1.67-2.24-2.73-4.48-2.73-6.37,0-2.77,1.37-4.79,4.62-5.89a30.46,30.46,0,0,1,9.18-1.06h6.68a1,1,0,0,0,1.1-1.14V95.06h-25Z" transform="translate(-30.97 -18.09)"/><path class="cls-1" d="M774.71,90.8l.35-.49h41.66l2.11,4.27-.35.48h-8l.18,40.25-.44.49-4.92-1.32.17-11.82a16.43,16.43,0,0,1-10.06,3.25c-8,0-15.34-6.33-15.34-14,0-6.72,5.67-10.85,13.41-10.85a48.63,48.63,0,0,1,12,1.58v-7.6H776.82Zm15.2,16.48a7.8,7.8,0,0,0-4.61,7.38c0,3.51,2.46,6.46,7.87,6.46a16.45,16.45,0,0,0,5.62-1Zm11.65,11.51a8.15,8.15,0,0,0,4-7V106.7a31.63,31.63,0,0,0-7.69-1,20.88,20.88,0,0,0-4.92.48Z" transform="translate(-30.97 -18.09)"/><path class="cls-1" d="M814.61,90.8l.35-.49h31.56l2.1,4.27-.35.48H837.46a36.72,36.72,0,0,1,.66,7.38c0,7.74-3.87,12.17-9.58,15.12,3.69,4.35,9.8,8.57,17.14,12.57l-3,5.62h-.53c-7.6-5.84-13.8-11.73-18-17.8-2.15-3.12-3.25-5.75-3.25-7.33a3.63,3.63,0,0,1,.79-2.33c.66-.93,2-1.45,4.18-1.45a54.86,54.86,0,0,1,5.58.26,14,14,0,0,0,1.49-6.68,26.21,26.21,0,0,0-.48-5.36H816.72Z" transform="translate(-30.97 -18.09)"/><path class="cls-1" d="M862.64,90.8l.36-.49h46.62l2.11,4.27-.35.48h-8l.22,40.25-.43.49-5-1.32.18-17a24.87,24.87,0,0,1-5.76.66,29.29,29.29,0,0,1-12.57-3.25,15.14,15.14,0,0,1-4.83,5.49c4.13,4.57,9.66,8.22,15.68,11.52l-3,5.71h-.4c-7.82-6.24-13.67-12.17-16.92-17.58-1.76-3-2.9-5.49-2.9-7.21a3.91,3.91,0,0,1,3.91-3.69,28.33,28.33,0,0,1,4,.44,22.85,22.85,0,0,0,.79-6.46,49.22,49.22,0,0,0-.66-8h-11Zm17.89,4.26a56.1,56.1,0,0,1,1,10.41,26.29,26.29,0,0,1-.53,5.63,23.8,23.8,0,0,0,8.13,1.41,44.66,44.66,0,0,0,9.28-1.1V95.06Z" transform="translate(-30.97 -18.09)"/><path class="cls-1" d="M881.28,139.05c5.4,7.47,10.63,12.22,16.17,12.22,3.07,0,7.34-2.16,7.34-5.32a2.85,2.85,0,0,0-3.17-3,9.1,9.1,0,0,0-6,2.68h-.36l-3-4.75a11.09,11.09,0,0,1,7.12-2.9c2.85,0,5.18,1.41,7.07,4.57a10.41,10.41,0,0,1,1.58,5.5c0,5.4-4.79,7.82-8.48,7.82-6.33,0-13-4.22-20.13-14.72v-.22Z" transform="translate(-30.97 -18.09)"/><path class="cls-1" d="M907.51,90.8l.35-.49h31.56l2.11,4.27-.36.48H930.36a36.72,36.72,0,0,1,.66,7.38c0,7.74-3.86,12.17-9.58,15.12,3.69,4.35,9.8,8.57,17.14,12.57l-3,5.62H935c-7.6-5.84-13.8-11.73-18-17.8-2.15-3.12-3.25-5.75-3.25-7.33a3.63,3.63,0,0,1,.79-2.33c.66-.93,2-1.45,4.18-1.45a54.86,54.86,0,0,1,5.58.26,14,14,0,0,0,1.49-6.68,25.52,25.52,0,0,0-.48-5.36H909.62Z" transform="translate(-30.97 -18.09)"/><path class="cls-1" d="M968.24,90.8l.36-.49h21.18l2.11,4.27-.35.48h-8l.18,40.25-.44.49-4.88-1.32,0-21.32a18.23,18.23,0,0,1-6.1.71c-3.08,0-7-1-11.91-3.3-4.35,3-10.73,5-10.73,11a7,7,0,0,0,7.21,7.12,10.9,10.9,0,0,0,6.11-1.89,7,7,0,0,1-1.5-4,3.92,3.92,0,0,1,4.05-4c3.38,0,6.28,4.17,6.28,7.29a5.63,5.63,0,0,1-2.94,4.53l7.91,16-.22.35-5.89-2.85L966.05,132a13.78,13.78,0,0,1-5.58,1.15c-7.87,0-16.35-6.24-16.35-13.89,0-3.6,1.4-7.56,9.93-11.69-4.57-2.68-7.95-6.42-7.95-10.64a7.91,7.91,0,0,1,8.13-8c6.32,0,12.65,7.12,12.65,13.09a7.69,7.69,0,0,1-3.12,6.37,14.58,14.58,0,0,0,5.19,1,14.83,14.83,0,0,0,9.58-3.21V95.06h-8.18Zm-5.62,8a5.23,5.23,0,0,0-5.45-5.14,5.59,5.59,0,0,0-5.89,5.45c0,2.9,2.37,5.71,6,6.73C960.51,104.11,962.62,102,962.62,98.79Z" transform="translate(-30.97 -18.09)"/><path class="cls-1" d="M987.67,90.8l.35-.49h19.25l2.11,4.27-.35.48h-8l.18,40.25-.44.49-4.92-1.32L996,95.06h-6.24Z" transform="translate(-30.97 -18.09)"/><path class="cls-1" d="M1023.4,90.8l.35-.49h44.43l2.11,4.27-.36.48h-8l.22,40.25-.44.49-5-1.32.18-17.54h-16.61v2c0,2-.27,3.34-1,4.22a3,3,0,0,1-2.68,1.41c-2.42,0-7.82-5.36-7.82-8.49a3.75,3.75,0,0,1,1.62-2.76,11.83,11.83,0,0,1,4.84-1.59V95.06h-9.85ZM1057,95.06h-16.79v17H1057Z" transform="translate(-30.97 -18.09)"/><path class="cls-1" d="M1066.07,90.8l.35-.49h19.25l2.11,4.27-.36.48h-8l.18,40.25-.44.49-4.93-1.32.14-39.42h-6.24Z" transform="translate(-30.97 -18.09)"/><path class="cls-1" d="M1083.56,90.8l.35-.49h40.87l2.11,4.27-.35.48h-8l.22,40.25-.44.49-5-1.32.17-22.37a62,62,0,0,0-6.55-.35,25.76,25.76,0,0,0-7.25.83v3.34a10.43,10.43,0,0,1-.44,3.78,3.19,3.19,0,0,1-2.94,1.67c-2,0-7.69-5.8-7.69-9.67,0-1.53,1-2.94,3.12-3.91a21.3,21.3,0,0,1,8.48-1.4c4,0,8.53.35,13.27.83V95.06h-27.9Z" transform="translate(-30.97 -18.09)"/><path class="cls-1" d="M1122.67,90.8l.35-.49h53.88l2.11,4.27-.36.48h-22.94v13.62l.14.09c2.59-2.55,5.58-4.13,9-4.13,5.71,0,10,5.23,10,11.12,0,4.83-2.64,9.4-6.29,13.93h-.44l-4.61-3.39c4.17-4.79,7-9.36,7-13.36,0-2.15-1.14-3.55-3.43-3.55-3.78,0-7.87,3.12-11.34,7.47l.09,18.45-.44.49-4.79-1.32.18-13-.13-.08a13.33,13.33,0,0,1-9,3.47c-8,0-13.67-6.11-13.67-13.05,0-6.6,5.54-10.46,12.75-10.46a36.58,36.58,0,0,1,10,1.4V95.06h-26.06Zm28.21,15.82a33.42,33.42,0,0,0-6.72-.71c-6.16,0-10.81,4.13-10.81,8.7,0,3.65,2.24,5.54,5.89,5.54s7.64-2.11,11.64-6.41Z" transform="translate(-30.97 -18.09)"/><circle class="cls-1" cx="248.38" cy="235.5" r="217.41" transform="translate(-124.75 226.52) rotate(-45)"/><circle class="cls-3" cx="249.22" cy="233.95" r="145.17" transform="translate(-35.61 444.77) rotate(-85.23)"/><circle class="cls-4" cx="249.22" cy="233.95" r="135.44" transform="translate(-35.6 444.78) rotate(-85.23)"/><circle class="cls-2" cx="35.39" cy="197.61" r="9.51"/><path class="cls-5" d="M441.32,209.12a9.51,9.51,0,1,1-9.51-9.51A9.51,9.51,0,0,1,441.32,209.12Z" transform="translate(-30.97 -18.09)"/><rect class="cls-3" x="204.03" y="77.13" width="20" height="281"/><rect class="cls-3" x="238" y="95.23" width="20" height="281" transform="translate(-18.7 465.64) rotate(-90)"/><path class="cls-3" d="M64.79,165.28,68,158.33l20.61-2.52,0-.07-16.12-7.33,2.33-5.12L98,153.85l-3,6.69-21.13,2.6,0,.07,16.52,7.52L88,175.84Z" transform="translate(-30.97 -18.09)"/><path class="cls-3" d="M89.14,120.88l2.75-3.74,27.1,6.19-3.76,5.1L109.58,127l-5.87,8,3.08,4.91-3.67,5Zm7.25,2.66,4.54,7.19,3.69-5Z" transform="translate(-30.97 -18.09)"/><path class="cls-3" d="M113.37,100l-5.22,5.06-3.46-3.57,14.48-14L122.62,91,117.4,96.1l14.28,14.74-4,3.91Z" transform="translate(-30.97 -18.09)"/><path class="cls-3" d="M130.57,78.53l4.54-3.3,15,20.6-4.54,3.3Z" transform="translate(-30.97 -18.09)"/><path class="cls-3" d="M154,77.55a14.43,14.43,0,0,1-1.56-5.42,12.21,12.21,0,0,1,.67-5.06,12.72,12.72,0,0,1,2.7-4.34,16.63,16.63,0,0,1,9.86-4.92,12.7,12.7,0,0,1,5.09.45,12.14,12.14,0,0,1,4.45,2.51,15.39,15.39,0,0,1,5,9.92,12,12,0,0,1-.67,5.06,12.46,12.46,0,0,1-2.7,4.35A16.64,16.64,0,0,1,166.93,85a12.55,12.55,0,0,1-5.1-.46,12,12,0,0,1-4.45-2.51A14.26,14.26,0,0,1,154,77.55Zm5.22-2.6a9.32,9.32,0,0,0,2,2.7,7.47,7.47,0,0,0,2.59,1.6,7.36,7.36,0,0,0,3,.41,8.32,8.32,0,0,0,3.19-.9,8.47,8.47,0,0,0,2.64-2,7.12,7.12,0,0,0,1.47-2.64,7.54,7.54,0,0,0,.28-3,9.42,9.42,0,0,0-1-3.19,9.67,9.67,0,0,0-2-2.69,7.76,7.76,0,0,0-2.6-1.62,7.36,7.36,0,0,0-3-.41A9.05,9.05,0,0,0,160,66.07a7.46,7.46,0,0,0-1.47,2.65,7.38,7.38,0,0,0-.27,3A9.33,9.33,0,0,0,159.21,75Z" transform="translate(-30.97 -18.09)"/><path class="cls-3" d="M189,48.14l7.4-1.86,14.82,14.53.07,0L207,43.62l5.44-1.37L218.61,67l-7.13,1.79L196.27,53.87l-.07,0,4.43,17.6-5.45,1.36Z" transform="translate(-30.97 -18.09)"/><path class="cls-3" d="M238.89,39.48l4.64-.17,12,25.06-6.33.23-2.4-5.31-9.89.37L235,65.13l-6.19.23Zm2.43,7.33-2.8,8,6.22-.23Z" transform="translate(-30.97 -18.09)"/><path class="cls-3" d="M269.86,40.32l5.56.81-2.94,20.09,10.3,1.51L282,67.86l-15.85-2.32Z" transform="translate(-30.97 -18.09)"/><path class="cls-3" d="M333.86,66.16a5.5,5.5,0,0,0-1.2-2.26,6.93,6.93,0,0,0-2.31-1.66,7,7,0,0,0-5.76-.09,8.06,8.06,0,0,0-2.5,1.72,10,10,0,0,0-2.74,6,8.17,8.17,0,0,0,.3,3A7,7,0,0,0,321,75.34a6.6,6.6,0,0,0,2.32,1.74,6.39,6.39,0,0,0,3.08.63,6.07,6.07,0,0,0,2.83-.92l2.8,5.13a9.79,9.79,0,0,1-5.13,1.33,12.77,12.77,0,0,1-5.1-1.16,15.67,15.67,0,0,1-4.61-3.15,12.78,12.78,0,0,1-2.84-4.26,12.27,12.27,0,0,1-.83-5,15.54,15.54,0,0,1,4.64-10.07,12.17,12.17,0,0,1,4.37-2.65,12.63,12.63,0,0,1,5.08-.61A15.66,15.66,0,0,1,333,57.76a13.06,13.06,0,0,1,2,1.12,12.66,12.66,0,0,1,1.83,1.54,10,10,0,0,1,1.5,1.95,8.67,8.67,0,0,1,1,2.39Z" transform="translate(-30.97 -18.09)"/><path class="cls-3" d="M351.21,85.82l.64-17.46,5.7,4L356.44,83.3l10.18-4.47,5.44,3.85-16.27,6.38-6.29,8.87-4.58-3.25Z" transform="translate(-30.97 -18.09)"/><path class="cls-3" d="M382.81,92.28l6.63,6.81a26.57,26.57,0,0,1,2.15,2.55,9,9,0,0,1,1.42,2.81,5.67,5.67,0,0,1,.1,2.92,5.88,5.88,0,0,1-1.82,2.92,5.35,5.35,0,0,1-3.41,1.64,6.69,6.69,0,0,1-3.68-.87l-.05,0a7.42,7.42,0,0,1,1.09,2.13,6.14,6.14,0,0,1,.28,2.19,5.93,5.93,0,0,1-.57,2.14,6.71,6.71,0,0,1-1.37,1.89,6.15,6.15,0,0,1-3,1.72,6.72,6.72,0,0,1-3.12-.08,9.72,9.72,0,0,1-3-1.38,16.47,16.47,0,0,1-2.63-2.18l-7.28-7.49Zm-10.95,18.48,3.51,3.62a6,6,0,0,0,1,.84,3.51,3.51,0,0,0,1.2.51,2.81,2.81,0,0,0,1.29,0,2.76,2.76,0,0,0,1.25-.73,2.28,2.28,0,0,0,.73-1.34,2.93,2.93,0,0,0-.19-1.4,5.89,5.89,0,0,0-.74-1.34,11.49,11.49,0,0,0-.95-1.13l-3-3Zm7.56-7.35,2.84,2.92a5.48,5.48,0,0,0,1,.81,3.41,3.41,0,0,0,1.13.49,2.48,2.48,0,0,0,1.18,0,2.65,2.65,0,0,0,1.14-.69,2.23,2.23,0,0,0,.67-2.36,4.22,4.22,0,0,0-.55-1.16,7.33,7.33,0,0,0-.84-1l-2.66-2.74Z" transform="translate(-30.97 -18.09)"/><path class="cls-3" d="M406.72,119.27l9.62,14.39L412,136.54l-6.5-9.72-3.95,2.64,6.14,9.19-4.31,2.88-6.14-9.19L393,135.22l6.86,10.27-4.31,2.88-10-14.94Z" transform="translate(-30.97 -18.09)"/><path class="cls-3" d="M424.82,149.19l3.91,9.05a17.61,17.61,0,0,1,1.11,3.54,8.82,8.82,0,0,1,.06,3.31,6.41,6.41,0,0,1-1.36,2.86,8,8,0,0,1-3.11,2.18,7.44,7.44,0,0,1-4.77.54,6.34,6.34,0,0,1-3.82-2.82l-7.32,10.21-2.67-6.18,7.24-8.93L413,160.41l-9.36,4-2.22-5.15Zm-7.46,9.33,1.31,3c.2.47.43.95.69,1.45a4.72,4.72,0,0,0,.9,1.28,2.68,2.68,0,0,0,1.23.71,2.62,2.62,0,0,0,1.66-.23,2.75,2.75,0,0,0,1.27-1,2.8,2.8,0,0,0,.41-1.28,4.72,4.72,0,0,0-.18-1.45,10.94,10.94,0,0,0-.52-1.46l-1.45-3.38Z" transform="translate(-30.97 -18.09)"/><path class="cls-3" d="M71.38,264.76a5.49,5.49,0,0,0,1.12-4.26c-.22-1.57-1.23-3.65-3.12-3.39-4.6.64,0,11.86-8.89,13.07-5.64.78-8.93-3.39-9.65-8.59a12.15,12.15,0,0,1,2-8.93l4.9,3.36A6.25,6.25,0,0,0,56,261.2c.25,1.82,1.39,3.74,3.17,3.49,4.64-.64.52-12.13,8.93-13.29,5.39-.74,8.85,3.55,9.53,8.5A11.53,11.53,0,0,1,76.07,268Z" transform="translate(-30.97 -18.09)"/><path class="cls-3" d="M80.63,279.19l5.17,16.53-5,1.54L77.36,286.1l-4.54,1.42,3.3,10.54-5,1.55-3.29-10.55-4.95,1.55,3.68,11.79-4.94,1.54L56.3,286.8Z" transform="translate(-30.97 -18.09)"/><path class="cls-3" d="M92.31,325a6,6,0,0,0-.39-5.24c-2-3.77-6.48-4.94-10.69-2.73s-5.82,6.58-3.93,10.19a6.11,6.11,0,0,0,4.86,3.38l-.92,5.77a11.15,11.15,0,0,1-8.2-6.11c-3.69-7.05-1.76-14.6,5.48-18.4s14.55-1.08,18.25,6c1.32,2.52,2.13,6.16.67,9.36Z" transform="translate(-30.97 -18.09)"/><path class="cls-3" d="M107.25,361.3c-4.71,3.75-10.49,3.66-14.88-1.87s-3.21-11.2,1.49-14.94l12.25-9.76,3.5,4.4-12.08,9.62a5.19,5.19,0,0,0-1.1,7.46c1.83,2.31,5,2.51,7.49.56L116,347.16l3.5,4.39Z" transform="translate(-30.97 -18.09)"/><path class="cls-3" d="M128.14,360.33l7.46,6.46c3.94,3.42,6.08,7.66,2.19,12.14-2.33,2.7-5.59,3.54-8.73,1.68L126.9,393l-5.08-4.41,2.64-11.18-2.09-1.82-6.67,7.7-4.25-3.68ZM125.48,372l2.5,2.17c1.55,1.34,3.61,3,5.43.94,1.67-1.93.19-3.74-1.36-5.09l-2.78-2.4Z" transform="translate(-30.97 -18.09)"/><path class="cls-3" d="M152.27,379.47l4.72,3-13.82,21.42-4.72-3.05Z" transform="translate(-30.97 -18.09)"/><path class="cls-3" d="M170.32,395.56l-6.58-3.09,2.11-4.49,18.25,8.56L182,401,175.41,398l-8.71,18.58-5.09-2.39Z" transform="translate(-30.97 -18.09)"/><path class="cls-3" d="M195.79,415.74l-5.34-16.64,6.73,1.86,2.67,10.63,8.05-7.67,6.42,1.77-13.11,11.54-2.9,10.48-5.41-1.49Z" transform="translate(-30.97 -18.09)"/><path class="cls-3" d="M254.53,414.75a5.41,5.41,0,0,0-4.08-1.65c-1.59,0-3.77.75-3.76,2.66,0,4.64,11.75,1.55,11.83,10.48.05,5.68-4.5,8.42-9.75,8.47a12.1,12.1,0,0,1-8.6-3.13l4-4.43a6.22,6.22,0,0,0,4.91,2.37c1.84,0,3.88-.9,3.87-2.7,0-4.67-12-2.05-12-10.54-.05-5.44,4.64-8.32,9.64-8.37a11.52,11.52,0,0,1,7.83,2.6Z" transform="translate(-30.97 -18.09)"/><path class="cls-3" d="M275.55,411.46l-7.17,1.22-.83-4.9,19.88-3.37.83,4.9-7.17,1.22,3.43,20.23-5.54.94Z" transform="translate(-30.97 -18.09)"/><path class="cls-3" d="M302.1,400.08l4.39-1.5,18.7,20.55-6,2-3.82-4.4L306,420l-.27,5.79-5.86,2Zm4.43,6.32-.38,8.49,5.89-2Z" transform="translate(-30.97 -18.09)"/><path class="cls-3" d="M325.61,390.9l6.58-3.86,18.32,9.77.06,0-9-15.26,4.84-2.85,12.92,22L353,404.35l-18.78-10-.06,0L343.37,410l-4.84,2.85Z" transform="translate(-30.97 -18.09)"/><path class="cls-3" d="M356.17,371.37l6.24-5.65c6.09-5.5,13.53-7.52,19.79-.61,5.53,6.12,3.51,13.92-2.13,19l-6.81,6.16ZM374,382.67l2.16-2c3.87-3.5,5.46-7.6,1.57-11.9-3.36-3.71-7.89-2.77-11.41.42l-2.46,2.22Z" transform="translate(-30.97 -18.09)"/><path class="cls-3" d="M385.79,340.74l2.78-3.72,27.06,6.33-3.79,5.08L406.2,347l-5.91,7.94,3.06,4.93-3.7,5Zm7.24,2.7,4.5,7.21,3.72-5Z" transform="translate(-30.97 -18.09)"/><path class="cls-3" d="M399.92,319.62l4.34-8.86c2.3-4.68,5.85-7.84,11.18-5.22,3.2,1.57,4.85,4.5,3.85,8l12.52-1.08-3,6-11.5.3-1.22,2.49,9.15,4.48-2.47,5.05Zm11.94-.4,1.46-3c.9-1.84,2-4.27-.48-5.49-2.29-1.12-3.66.77-4.57,2.62l-1.61,3.29Z" transform="translate(-30.97 -18.09)"/><path class="cls-3" d="M412.45,291.88l2.23-8.12c2.17-7.91,7.35-13.62,16.34-11.15,8,2.18,10.44,9.84,8.43,17.16L437,298.62Zm21.06,0,.77-2.81c1.38-5,.51-9.34-5.08-10.88-4.82-1.32-8.14,1.91-9.39,6.5l-.88,3.19Z" transform="translate(-30.97 -18.09)"/><path class="cls-3" d="M427.47,246.33a5.4,5.4,0,0,0-2,3.9c-.14,1.58.38,3.83,2.29,4,4.62.4,2.66-11.55,11.56-10.78,5.66.49,8,5.28,7.5,10.52a12.11,12.11,0,0,1-3.93,8.26l-4-4.36a6.3,6.3,0,0,0,2.83-4.67c.15-1.83-.53-3.95-2.32-4.11-4.66-.4-3.19,11.72-11.65,11-5.42-.47-7.84-5.42-7.41-10.4a11.54,11.54,0,0,1,3.33-7.56Z" transform="translate(-30.97 -18.09)"/><g id="SvgjsG8203-2" data-name="SvgjsG8203"><path class="cls-1" d="M292.87,321.84a4.16,4.16,0,0,1-2.75-.68c-26.17-20.66-55.09-45.45-63.35-73-3.44-11.7,3.44-23.41,15.15-26.85s23.41,3.44,26.85,15.15c4.82,15.83,36.49,41.31,48.2,50.26,2.06,1.38,2.06,4.13.69,6.2s-4.13,2.06-6.2.68c-22.72-17.9-46.13-38.55-50.95-55.08A13.5,13.5,0,0,0,244,229.58,13.19,13.19,0,0,0,235,246.11c6.89,24.78,34.43,48.19,59.91,68.16,2.06,1.38,2.06,4.13.68,6.2C295.62,321.16,294.25,321.84,292.87,321.84Z" transform="translate(-30.97 -18.09)"/><path class="cls-1" d="M181.33,299.12a4.64,4.64,0,0,1-4.13-2.75,4.52,4.52,0,0,1,3.44-5.51c4.82-1.38,20-8.26,13.08-33.05-4.13-14.46-2.75-30.29,4.82-43.38s19.28-22.72,33.74-26.85c29.61-8.26,60.59,8.26,69.54,37.18,2.07,2.07,17.21,14.46,27.54,22.72,2.07,1.38,2.07,4.13.69,6.2s-4.13,2.07-6.2.69c-28.23-22.72-28.91-24.1-29.6-25.48a.68.68,0,0,0-.69-.69C286,203.42,259.13,189,234.35,195.84a47.64,47.64,0,0,0-33,59.22c7.57,26.16-5.51,39.93-18.59,44.06Z" transform="translate(-30.97 -18.09)"/><path class="cls-1" d="M195.79,316.34a4.23,4.23,0,0,1-1.38-8.27c17.9-5.5,24.79-15.14,15.84-55.08-4.82-22,6.88-42.69,26.85-48.19,20.65-6.2,42.69,6.19,48.88,26.85,1.38,4.13,6.89,12.39,39.25,37.87,2.07,1.37,2.07,4.13.69,6.19s-4.13,2.07-6.2.69c-35.8-28.23-40.62-36.49-42-42.69-4.82-16.52-21.34-25.47-37.87-20.65-15.83,4.82-24.78,20.65-20.65,37.87,9,41.31,3.44,57.83-22,65.41Z" transform="translate(-30.97 -18.09)"/><path class="cls-1" d="M305.26,307.39a3.58,3.58,0,0,1-2.75-1.38c-1.38-1.38-4.82-4.13-8.95-7.58-15.84-11.7-42-31.67-48.89-55.77a4.36,4.36,0,0,1,8.27-2.75c6.19,21.34,31,39.93,45.44,51a88.64,88.64,0,0,1,10.33,8.26c1.37,1.38,1.37,4.82,0,6.2A6.3,6.3,0,0,1,305.26,307.39Z" transform="translate(-30.97 -18.09)"/><path class="cls-1" d="M239.16,342.5h0c-2.75,0-4.81-2.07-4.13-4.82,0-4.82,2.76-30.29,17.22-30.29,11,0,17.21,8.95,22,15.14,1.38,1.38,2.07,2.76,3.44,4.13s1.38,4.82,0,6.2-4.82,1.38-6.19,0a29.9,29.9,0,0,1-4.14-4.82c-3.44-4.82-8.26-11-14.45-11-4.82,0-8.27,13.09-9,22A5.41,5.41,0,0,1,239.16,342.5Z" transform="translate(-30.97 -18.09)"/><path class="cls-1" d="M213,333.55a4.66,4.66,0,0,1-4.13-2.75,4.35,4.35,0,0,1,2.75-5.51c11-3.45,18.59-26.86,14.46-38.56a4.36,4.36,0,1,1,8.27-2.75c4.81,14.45-3.45,44.06-20,48.88C213.69,333.55,213.69,333.55,213,333.55Z" transform="translate(-30.97 -18.09)"/><path class="cls-1" d="M177.89,246.11a4,4,0,0,1-4.14-4.13,74.06,74.06,0,0,1,74.37-74.37c40.62,0,55.08,23.41,65.41,40.63,4.82,8.26,9,15.15,14.45,16.52a4.35,4.35,0,1,1-2.75,8.26c-8.26-2.75-13.77-11-19.28-20.65-10.33-15.84-22.72-36.49-57.83-36.49a65.37,65.37,0,0,0-65.41,65.41A4.71,4.71,0,0,1,177.89,246.11Z" transform="translate(-30.97 -18.09)"/><path class="cls-1" d="M182.71,277.09a4.3,4.3,0,0,1-4.14-2.75c-.68-1.38-4.82-9.64-4.82-15.15a4,4,0,0,1,4.14-4.13,4.44,4.44,0,0,1,4.13,4.13c0,2.06,2.06,8.26,4.13,11,1.38,2.07,0,4.82-2.07,6.2A2.41,2.41,0,0,1,182.71,277.09Z" transform="translate(-30.97 -18.09)"/><path class="cls-1" d="M309.39,184.83a3.79,3.79,0,0,1-3.44-2.07c-4.13-6.88-28.23-24.1-62-24.1-35.11,0-53.7,17.91-57.14,24.1-2.07,2.07-4.82,2.76-6.89,1.38s-2.75-3.44-1.38-5.51c4.82-7.57,25.48-28.23,64.73-28.23,36.49,0,63.34,18.59,69.54,28.23,1.37,2.07.69,4.13-1.38,5.51A2.53,2.53,0,0,1,309.39,184.83Z" transform="translate(-30.97 -18.09)"/><path class="cls-1" d="M291.49,149.71h-1.37a33.06,33.06,0,0,1-4.82-2.06c-8.95-3.45-17.91-6.89-41.32-6.89-20.65,0-25.47,2.76-32.36,5.51-2.06,1.38-3.44,2.75-5.5,3.44s-4.82,0-5.51-2.06,0-4.82,2.06-5.51a38.71,38.71,0,0,1,4.82-2.75c7.58-4.14,13.08-6.89,36.49-6.89,25.48,0,35.12,3.44,44.76,6.89,1.38.68,3.44,1.37,4.82,2.06a4.69,4.69,0,0,1,2.75,5.51C295.62,149,293.56,149.71,291.49,149.71Z" transform="translate(-30.97 -18.09)"/><path class="cls-1" d="M326.61,211a4.64,4.64,0,0,1-4.13-2.75c-2.07-6.2-8.27-16.53-8.27-16.53a4.49,4.49,0,0,1,7.58-4.82c0,.69,6.88,11,8.95,18.59A4.68,4.68,0,0,1,328,211Z" transform="translate(-30.97 -18.09)"/></g><path d="M524.17,430.14H521l11.7-26.9h2.66l11.71,26.9h-3.2l-3-7.07H527.14Zm4-9.58h11.67L534,406.43Z" transform="translate(-30.97 -18.09)"/><path d="M598.31,407.68a5.91,5.91,0,0,0-5.21-2.62c-2.81,0-5.73,1.48-5.73,4.86,0,7.26,13.79,3.42,13.79,13.11,0,4.9-4.6,7.79-8.86,7.79a10.13,10.13,0,0,1-8.47-4l2.47-1.78a6.8,6.8,0,0,0,6.12,3.26c2.7,0,5.77-1.74,5.77-4.9,0-7.6-13.79-3.38-13.79-13.22,0-5.2,4.33-7.64,8.7-7.64a9.29,9.29,0,0,1,7.6,3.27Z" transform="translate(-30.97 -18.09)"/><path d="M621.6,427.63H636v2.51H618.87v-26.9h16.68v2.51H621.6v9.15h13v2.51h-13Z" transform="translate(-30.97 -18.09)"/><path d="M656.3,427.63h12.53v2.51H653.56v-26.9h2.74Z" transform="translate(-30.97 -18.09)"/><path d="M687.46,430.14h-2.74v-26.9H701v2.51H687.46v9.15H700v2.51H687.46Z" transform="translate(-30.97 -18.09)"/><path d="M725.57,422.27h-9.76v-2.5h9.76Z" transform="translate(-30.97 -18.09)"/><path d="M762.69,408.18a10.1,10.1,0,0,0-7.67-3.12c-6.92,0-11.06,5.43-11.06,11.63s4.14,11.62,11.06,11.62a15.49,15.49,0,0,0,7.45-1.9v-9H756V414.9h9.16v13.19A21,21,0,0,1,755,430.82a14.14,14.14,0,0,1,0-28.27c4.25,0,7.33,1.22,9.73,3.61Z" transform="translate(-30.97 -18.09)"/><path d="M796.74,430.82a14.14,14.14,0,1,1,14-14.13A13.69,13.69,0,0,1,796.74,430.82Zm0-25.76c-6.91,0-11,5.43-11,11.63s4.14,11.62,11,11.62,11.06-5.43,11.06-11.62S803.66,405.06,796.74,405.06Z" transform="translate(-30.97 -18.09)"/><path d="M836.23,426h.07l8.82-22.79h3l-10.49,26.9h-2.73l-10.22-26.9h3Z" transform="translate(-30.97 -18.09)"/><path d="M866.51,427.63h14.4v2.51H863.78v-26.9h16.68v2.51h-14v9.15h13v2.51h-13Z" transform="translate(-30.97 -18.09)"/><path d="M901.21,430.14h-2.74v-26.9h8.28c5.47,0,8.86,2.35,8.86,7.18,0,3.72-2.47,6.57-6.88,6.95l7.75,12.77h-3.34l-7.37-12.5h-4.56Zm0-15h4.86c4.9,0,6.57-2.13,6.57-4.71s-1.67-4.67-6.57-4.67h-4.86Z" transform="translate(-30.97 -18.09)"/><path d="M952.62,426h.07V403.24h2.74v26.9H952l-16-23h-.08v23h-2.74v-26.9h3.42Z" transform="translate(-30.97 -18.09)"/><path d="M977.62,430.14h-2.73v-26.9h2.73Z" transform="translate(-30.97 -18.09)"/><path d="M1016.53,426h.08V403.24h2.73v26.9h-3.41l-16-23h-.07v23h-2.74v-26.9h3.42Z" transform="translate(-30.97 -18.09)"/><path d="M1058.67,408.18a10.1,10.1,0,0,0-7.67-3.12c-6.92,0-11.06,5.43-11.06,11.63s4.14,11.62,11.06,11.62a15.49,15.49,0,0,0,7.45-1.9v-9H1052V414.9h9.15v13.19a21,21,0,0,1-10.18,2.73,14.14,14.14,0,0,1,0-28.27c4.25,0,7.33,1.22,9.73,3.61Z" transform="translate(-30.97 -18.09)"/><path d="M1115.45,430.82a14.14,14.14,0,1,1,14-14.13A13.68,13.68,0,0,1,1115.45,430.82Zm0-25.76c-6.92,0-11.06,5.43-11.06,11.63s4.14,11.62,11.06,11.62,11-5.43,11-11.62S1122.36,405.06,1115.45,405.06Z" transform="translate(-30.97 -18.09)"/><path d="M1149.84,430.14h-2.74v-26.9h8.29c5.47,0,8.85,2.35,8.85,7.18,0,3.72-2.47,6.57-6.88,6.95l7.75,12.77h-3.34l-7.37-12.5h-4.56Zm0-15h4.86c4.9,0,6.58-2.13,6.58-4.71s-1.68-4.67-6.58-4.67h-4.86Z" transform="translate(-30.97 -18.09)"/><path d="M1201.67,408.18a10.14,10.14,0,0,0-7.68-3.12c-6.91,0-11,5.43-11,11.63s4.14,11.62,11,11.62a15.43,15.43,0,0,0,7.45-1.9v-9H1195V414.9h9.16v13.19a21.09,21.09,0,0,1-10.19,2.73,14.14,14.14,0,0,1,0-28.27c4.26,0,7.34,1.22,9.73,3.61Z" transform="translate(-30.97 -18.09)"/><path d="M1223.07,430.14h-3.2l11.71-26.9h2.66l11.7,26.9h-3.19l-3-7.07H1226Zm4-9.58h11.67l-5.81-14.13Z" transform="translate(-30.97 -18.09)"/><path d="M1281.2,426h.08V403.24H1284v26.9h-3.42l-16-23h-.08v23h-2.73v-26.9h3.42Z" transform="translate(-30.97 -18.09)"/><path d="M1306.21,430.14h-2.74v-26.9h2.74Z" transform="translate(-30.97 -18.09)"/><path d="M1342,405.52l-15.69,22.11h15.92v2.51h-19.38v-2.28l15.73-22.11h-15.5v-2.51H1342Z" transform="translate(-30.97 -18.09)"/><path d="M1358.5,430.14h-3.19l11.7-26.9h2.66l11.7,26.9h-3.19l-3-7.07h-13.75Zm4-9.58h11.66l-5.81-14.13Z" transform="translate(-30.97 -18.09)"/><path d="M1403.22,430.14h-2.73V405.75h-9v-2.51h20.75v2.51h-9Z" transform="translate(-30.97 -18.09)"/><path d="M1431.3,430.14h-2.73v-26.9h2.73Z" transform="translate(-30.97 -18.09)"/><path d="M1463,430.82a14.14,14.14,0,1,1,14-14.13A13.68,13.68,0,0,1,1463,430.82Zm0-25.76c-6.92,0-11.06,5.43-11.06,11.63s4.14,11.62,11.06,11.62,11-5.43,11-11.62S1469.87,405.06,1463,405.06Z" transform="translate(-30.97 -18.09)"/><path d="M1514.07,426h.07V403.24h2.74v26.9h-3.42l-16-23h-.07v23h-2.74v-26.9H1498Z" transform="translate(-30.97 -18.09)"/></svg>